<?xml version="1.0" encoding="UTF-8" ?>
<!DOCTYPE svg PUBLIC "-//W3C//DTD SVG 1.1//EN" "http://www.w3.org/Graphics/SVG/1.1/DTD/svg11.dtd">
<svg width="35pt" height="20pt" viewBox="0 0 570 341" version="1.1" xmlns="http://www.w3.org/2000/svg">
<path fill="#222222" d=" M 0.00 0.00 L 570.00 0.00 L 570.00 341.00 L 0.00 341.00 L 0.00 0.00 Z" />
<path fill="#ffffff" d=" M 167.27 21.97 C 168.75 21.37 170.38 21.33 171.96 21.29 C 245.97 21.27 319.98 21.31 393.99 21.27 C 405.64 20.23 416.75 31.35 415.60 43.01 C 415.59 69.33 415.58 95.66 415.60 121.98 C 416.17 126.08 418.85 129.72 418.69 134.00 C 418.83 147.33 418.72 160.67 418.75 174.01 C 418.84 180.25 416.34 186.49 411.90 190.89 C 407.97 194.88 402.38 196.61 397.00 197.43 C 323.32 197.51 249.65 197.42 175.98 197.48 C 168.28 197.78 159.83 195.31 154.92 189.05 C 151.33 184.57 149.33 178.79 149.39 173.05 C 149.45 160.44 149.37 147.82 149.43 135.21 C 149.32 130.89 151.67 127.09 152.64 123.03 C 152.76 95.70 152.64 68.36 152.70 41.03 C 153.12 32.48 159.21 24.73 167.27 21.97 Z" />
<path fill="#222222" d=" M 257.42 82.43 C 275.42 82.45 293.43 82.38 311.44 82.47 C 311.41 90.13 311.44 97.79 311.43 105.46 C 293.42 105.55 275.42 105.47 257.42 105.50 C 257.35 97.81 257.37 90.12 257.42 82.43 Z" />
<path fill="#222222" d=" M 218.25 82.77 C 224.43 81.68 231.16 82.85 236.07 86.93 C 241.54 91.15 244.86 98.08 244.41 105.00 C 244.10 114.38 236.84 122.92 227.69 124.91 C 216.95 127.84 205.01 120.53 202.22 109.87 C 198.54 98.35 206.44 85.20 218.25 82.77 Z" />
<path fill="#222222" d=" M 340.29 82.97 C 344.82 82.10 349.75 82.14 354.03 84.07 C 361.78 87.32 367.45 95.50 366.82 104.02 C 367.61 115.42 357.20 125.45 346.03 125.50 C 336.56 125.81 327.38 119.18 324.88 109.99 C 323.69 104.31 323.85 97.96 327.05 92.92 C 329.84 87.93 334.85 84.51 340.29 82.97 Z" />
<path fill="#222222" d=" M 246.29 164.03 C 250.58 162.48 256.26 162.82 259.11 166.91 C 264.67 172.72 259.77 183.60 251.86 183.66 C 245.87 184.53 240.41 178.91 240.65 173.06 C 240.56 169.25 243.19 165.95 246.29 164.03 Z" />
<path fill="#222222" d=" M 311.63 164.61 C 316.02 162.17 322.81 162.63 325.77 167.19 C 329.16 171.70 327.94 178.93 323.14 181.97 C 318.29 185.48 310.65 183.52 308.12 178.07 C 306.25 173.50 307.15 167.38 311.63 164.61 Z" />
<path fill="#ffffff" d=" M 89.60 182.06 C 90.78 175.67 94.62 169.11 101.07 166.90 C 108.87 164.86 116.93 169.40 121.36 175.70 C 125.71 181.90 122.90 190.48 127.45 196.57 C 129.00 198.87 131.70 199.77 134.28 200.34 C 182.21 211.84 230.20 223.09 278.13 234.57 C 283.09 235.10 288.12 234.43 293.01 233.58 C 335.68 227.58 378.34 221.61 421.00 215.59 C 424.54 215.31 428.64 215.04 431.09 212.10 C 436.66 206.28 434.41 196.81 439.96 190.98 C 445.08 185.22 453.44 182.77 460.87 184.73 C 467.13 187.88 470.72 195.08 470.62 201.93 C 470.56 207.64 466.37 211.99 464.35 217.02 C 463.51 220.30 465.02 223.44 467.37 225.67 C 472.85 231.40 475.74 239.65 474.23 247.53 C 472.85 252.75 467.31 255.05 462.53 256.12 C 456.93 257.07 450.52 256.83 445.99 252.99 C 441.16 248.26 439.51 241.13 434.37 236.65 C 432.12 234.57 428.76 235.49 426.01 235.57 C 410.00 237.88 393.99 240.15 377.97 242.43 C 364.80 244.11 351.70 246.47 338.48 247.69 C 338.56 248.06 338.71 248.78 338.78 249.14 C 356.06 252.83 373.13 257.43 390.33 261.48 C 392.99 261.87 396.02 262.07 398.28 260.32 C 402.79 257.04 404.88 251.61 408.57 247.58 C 415.29 241.50 426.49 240.58 433.76 246.20 C 438.92 250.50 439.34 257.86 438.34 264.03 C 436.86 269.95 431.63 273.55 427.14 277.12 C 424.25 279.25 423.76 283.37 425.27 286.48 C 428.58 293.89 428.68 303.18 424.05 310.06 C 421.29 314.31 415.65 314.93 411.05 314.15 C 405.67 313.13 399.97 311.06 396.67 306.43 C 392.69 300.23 394.42 292.26 391.06 285.82 C 390.18 283.69 388.04 282.55 385.92 281.98 C 350.88 273.54 315.87 264.97 280.82 256.57 C 276.67 256.20 272.61 257.50 268.50 257.90 C 233.89 262.87 199.28 267.90 164.68 272.89 C 159.93 274.24 158.53 279.60 157.51 283.81 C 156.25 289.30 155.02 295.69 149.73 298.78 C 143.28 302.46 134.56 304.15 127.93 300.00 C 122.62 295.70 122.92 288.15 123.35 281.97 C 123.48 276.63 128.60 272.51 127.41 267.03 C 124.66 261.37 118.36 258.21 116.49 252.03 C 116.00 246.42 115.42 240.01 119.39 235.42 C 124.63 229.04 134.49 229.20 141.31 232.77 C 149.22 236.33 149.79 246.71 156.78 251.28 C 159.53 253.28 163.14 252.39 166.24 251.88 C 184.18 249.33 202.09 246.43 220.04 244.06 C 221.46 243.51 220.97 241.65 219.61 241.50 C 191.55 234.80 163.50 228.07 135.44 221.36 C 130.95 220.47 125.89 217.72 121.59 220.62 C 115.39 225.02 113.31 233.60 106.22 236.96 C 100.00 239.99 92.92 237.75 87.12 234.82 C 83.20 232.93 81.07 228.34 81.64 224.09 C 82.30 217.93 85.14 211.92 89.89 207.86 C 92.50 205.74 94.91 202.73 94.75 199.21 C 93.28 193.42 88.81 188.34 89.60 182.06 Z" />
<path fill="#222222" d=" M 218.66 169.73 C 222.44 168.61 226.82 170.40 228.46 174.05 C 228.99 177.24 229.44 181.39 226.40 183.51 C 223.64 186.09 219.11 186.25 216.21 183.82 C 211.27 180.27 212.66 171.36 218.66 169.73 Z" />
<path fill="#222222" d=" M 344.68 169.75 C 349.30 168.22 354.69 171.45 355.27 176.33 C 356.17 181.40 351.22 186.31 346.17 185.47 C 341.10 184.76 337.91 178.92 339.89 174.22 C 340.96 172.27 342.61 170.63 344.68 169.75 Z" />
</svg>
